<?xml version="1.0" standalone="no"?>
<!DOCTYPE svg PUBLIC "-//W3C//DTD SVG 1.1//EN" "http://www.w3.org/Graphics/SVG/1.1/DTD/svg11.dtd" >
<svg xmlns="http://www.w3.org/2000/svg" xmlns:xlink="http://www.w3.org/1999/xlink" version="1.1">
<metadata></metadata>
<defs>
<font id="proxima_nova_extra_condeSBdIt" horiz-adv-x="823" >
<font-face units-per-em="2048" ascent="1618" descent="-430" />
<missing-glyph horiz-adv-x="342" />
<glyph unicode="&#xfb01;" horiz-adv-x="886" d="M23 0l182 821h-94l36 168h95l26 129q58 268 273 268q72 0 129 -26l-66 -156q-20 13 -43 13q-77 0 -100 -99l-27 -129h129l-39 -168h-127l-182 -821h-192zM481 0l219 989h193l-219 -989h-193zM731 1257q0 62 44 101t95 39q47 0 79 -32t32 -75q0 -62 -43.5 -99.5 t-95.5 -37.5q-47 0 -79 30.5t-32 73.5z" />
<glyph unicode="&#xfb02;" horiz-adv-x="886" d="M23 0l182 821h-94l36 168h95l26 129q58 268 273 268q72 0 129 -26l-66 -156q-20 13 -43 13q-77 0 -100 -99l-27 -129h129l-39 -168h-127l-182 -821h-192zM481 0l301 1366h193l-301 -1366h-193z" />
<glyph unicode="&#xfb03;" horiz-adv-x="1376" d="M23 0l182 821h-94l36 168h95l26 129q58 268 273 268q72 0 129 -26l-66 -156q-20 13 -43 13q-77 0 -100 -99l-27 -129h129l-39 -168h-127l-182 -821h-192zM512 0l182 821h-94l37 168h94l27 129q58 268 272 268q72 0 129 -26l-65 -156q-20 13 -43 13q-78 0 -101 -99 l-26 -129h129l-39 -168h-127l-182 -821h-193zM971 0l219 989h192l-219 -989h-192zM1221 1257q0 62 44 101t95 39q46 0 78 -31.5t32 -75.5q0 -62 -43.5 -99.5t-95.5 -37.5q-47 0 -78.5 30.5t-31.5 73.5z" />
<glyph unicode="&#xfb04;" horiz-adv-x="1376" d="M23 0l182 821h-94l36 168h95l26 129q58 268 273 268q72 0 129 -26l-66 -156q-20 13 -43 13q-77 0 -100 -99l-27 -129h129l-39 -168h-127l-182 -821h-192zM512 0l182 821h-94l37 168h94l27 129q58 268 272 268q72 0 129 -26l-65 -156q-20 13 -43 13q-78 0 -101 -99 l-26 -129h129l-39 -168h-127l-182 -821h-193zM971 0l301 1366h192l-301 -1366h-192z" />
<glyph horiz-adv-x="0" />
<glyph horiz-adv-x="682" />
<glyph horiz-adv-x="0" />
<glyph horiz-adv-x="0" />
<glyph unicode="&#xd;" horiz-adv-x="0" />
<glyph unicode=" "  horiz-adv-x="342" />
<glyph unicode="&#x09;" horiz-adv-x="342" />
<glyph unicode="&#xa0;" horiz-adv-x="342" />
<glyph unicode="!" horiz-adv-x="489" d="M27 98q0 59 42.5 101.5t100.5 42.5q51 0 86 -35.5t35 -85.5q0 -60 -43 -102t-103 -42q-50 0 -84 35t-34 86zM143 406l176 960h236l-248 -960h-164z" />
<glyph unicode="&#x22;" horiz-adv-x="749" d="M236 817l32 438q5 58 40.5 94.5t88.5 36.5q40 0 69.5 -29t29.5 -71q0 -20 -13 -53l-159 -416h-88zM563 817l31 438q5 58 40.5 94.5t88.5 36.5q40 0 69 -29t29 -71q0 -23 -12 -53l-158 -416h-88z" />
<glyph unicode="#" horiz-adv-x="903" d="M-33 0l164 362h-129l57 130h131l175 382h-134l56 127h133l166 365h147l-164 -365h136l163 365h148l-164 -365h129l-55 -127h-131l-177 -382h138l-58 -130h-137l-164 -362h-149l168 362h-137l-164 -362h-148zM338 492h133l174 382h-133z" />
<glyph unicode="$" horiz-adv-x="755" d="M-41 125l127 158q32 -52 88 -84.5t113 -32.5q74 0 129 61.5t55 161.5q0 40 -20 82.5t-42 70.5t-65 74q-43 48 -64 74t-52 74t-44.5 97.5t-13.5 105.5q0 162 101 281t249 138l41 187h150l-43 -197q117 -29 186 -110l-117 -158q-67 90 -174 90q-74 0 -121 -57.5t-47 -136.5 q0 -37 19 -77t40.5 -67t63.5 -74q40 -46 63 -76t53 -78t44 -99.5t14 -108.5q0 -168 -93 -292t-243 -150l-41 -187h-149l41 187q-79 14 -145.5 52t-102.5 91z" />
<glyph unicode="%" horiz-adv-x="1187" d="M154 0l866 1366h96l-868 -1366h-94zM162 963q0 175 94 299t215 124q107 0 165 -71.5t58 -179.5q0 -175 -94 -299.5t-215 -124.5q-108 0 -165.5 71.5t-57.5 180.5zM297 975q0 -141 96 -141q60 0 113 86.5t53 201.5q0 140 -96 140q-61 0 -113.5 -85.5t-52.5 -201.5z M571 227q0 175 94.5 299.5t217.5 124.5q106 0 164.5 -72t58.5 -180q0 -175 -95 -299.5t-216 -124.5q-107 0 -165.5 72t-58.5 180zM707 240q0 -140 96 -140q61 0 113.5 85.5t52.5 201.5q0 141 -95 141q-61 0 -114 -86t-53 -202z" />
<glyph unicode="&#x26;" horiz-adv-x="872" d="M16 254q0 76 17.5 144t44 118t69 98t81 81t91.5 71q-18 102 -18 192q0 114 43 213t114.5 157t151.5 58q95 0 152 -58.5t57 -174.5q0 -77 -21.5 -139.5t-78 -122t-88.5 -86.5t-117 -88q-7 -5 -10 -8q6 -31 39 -150q24 -85 45 -153q47 82 123 253l141 -79 q-104 -226 -201 -355q10 -26 94 -225h-194l-31 78q-119 -103 -246 -103q-117 0 -187.5 73.5t-70.5 205.5zM215 281q0 -66 28 -108t74 -42q68 0 150 92q-38 105 -68 209q-30 105 -43 158q-141 -138 -141 -309zM473 946q0 -44 2 -67q84 64 129 127t45 147q0 52 -13.5 71 t-41.5 19q-46 0 -83.5 -94t-37.5 -203z" />
<glyph unicode="'" horiz-adv-x="425" d="M236 817l32 438q5 58 40.5 94.5t88.5 36.5q40 0 69.5 -29t29.5 -71q0 -20 -13 -53l-159 -416h-88z" />
<glyph unicode="(" horiz-adv-x="485" d="M43 51q0 724 465 1352l123 -74q-176 -302 -283.5 -669.5t-107.5 -712.5q0 -157 16 -307l-147 -48q-66 214 -66 459z" />
<glyph unicode=")" horiz-adv-x="485" d="M-147 -334q176 302 283.5 670t107.5 713q0 147 -17 307l148 47q65 -214 65 -459q0 -724 -465 -1352z" />
<glyph unicode="*" horiz-adv-x="641" d="M137 1012l228 82l-181 125l72 84l166 -144l41 227h106l-63 -237l221 102l31 -96l-226 -82l181 -125l-74 -84l-166 144l-39 -228h-106l63 238l-223 -103z" />
<glyph unicode="+" horiz-adv-x="780" d="M88 627l27 127h262l63 293h140l-64 -293h260l-28 -127h-261l-69 -305h-137l67 305h-260z" />
<glyph unicode="," horiz-adv-x="489" d="M-37 -176q59 28 111 75t71 97q-2 -2 -18 -2q-41 0 -70.5 29t-29.5 77q0 58 43.5 100t99.5 42q54 0 90.5 -36.5t36.5 -99.5q0 -102 -75.5 -204t-184.5 -156z" />
<glyph unicode="-" horiz-adv-x="487" d="M41 412l37 166h364l-34 -166h-367z" />
<glyph unicode="." horiz-adv-x="489" d="M27 98q0 59 42.5 101.5t100.5 42.5q51 0 86 -35.5t35 -85.5q0 -59 -43.5 -101.5t-102.5 -42.5q-51 0 -84.5 35t-33.5 86z" />
<glyph unicode="/" horiz-adv-x="442" d="M-121 -41l621 1448h145l-622 -1448h-144z" />
<glyph unicode="0" horiz-adv-x="892" d="M72 383q0 163 40 339t108 324t170 244t214 96q136 0 216.5 -103.5t80.5 -303.5q0 -163 -40 -339t-108 -324.5t-170.5 -244.5t-215.5 -96q-134 0 -214.5 104.5t-80.5 303.5zM281 346q0 -89 24 -134.5t82 -45.5q52 0 101 66t84.5 166.5t63 217.5t41 222.5t13.5 177.5 q0 90 -23.5 135t-82.5 45q-64 0 -123.5 -99t-97 -238.5t-60 -279.5t-22.5 -233z" />
<glyph unicode="1" horiz-adv-x="663" d="M127 1012l424 354h186l-301 -1366h-213l240 1087l-240 -206z" />
<glyph unicode="2" horiz-adv-x="858" d="M-16 0l47 217q63 69 144 156.5t127 137t103.5 113t88.5 99.5t67.5 82t53.5 74.5t34 61.5t23 60t6 54q0 65 -36 103t-97 38q-63 0 -116 -31.5t-107 -105.5l-115 137q155 190 358 190q151 0 244.5 -80.5t93.5 -224.5q0 -38 -7 -75.5t-17 -71.5t-34 -77.5t-44.5 -77.5 t-63 -88.5t-74.5 -94.5t-94.5 -111.5t-108.5 -122.5t-129 -143q-19 -20 -28 -31h410l-41 -188h-688z" />
<glyph unicode="3" horiz-adv-x="856" d="M-18 250l176 104q21 -92 73 -140t125 -48q62 0 109 46.5t68.5 111.5t21.5 135q0 72 -41.5 108.5t-103.5 36.5q-52 0 -70 -4l43 195q14 -2 100 -2q92 0 143.5 80t51.5 186q0 69 -39 103t-109 34q-56 0 -109.5 -34.5t-90.5 -92.5l-119 125q67 86 157.5 139t196.5 53 q149 0 241.5 -75.5t92.5 -212.5q0 -142 -86 -260t-209 -144q84 -29 123 -99.5t39 -158.5q0 -120 -52.5 -225.5t-147.5 -170.5t-210 -65q-133 0 -236.5 71.5t-137.5 203.5z" />
<glyph unicode="4" horiz-adv-x="825" d="M-10 324l45 206l583 836h263l-191 -854h107l-41 -188h-107l-69 -324h-213l69 324h-446zM211 512h266l133 592z" />
<glyph unicode="5" horiz-adv-x="866" d="M-2 248l174 102q17 -89 65 -136.5t119 -47.5q59 0 111 55t82.5 141.5t30.5 176.5q0 69 -32 109t-93 40q-93 0 -179 -102l-147 59l162 721h637l-41 -188h-424l-90 -408q75 94 194 94q107 0 171.5 -80t64.5 -219q0 -150 -55.5 -284.5t-160 -220t-231.5 -85.5 q-276 0 -358 273z" />
<glyph unicode="6" horiz-adv-x="862" d="M66 373q0 66 10 148.5t32 180t54 193t79.5 185t104.5 157t134 108.5t163 41q99 0 175.5 -53t107.5 -143l-148 -135q-11 66 -49 103.5t-98 37.5q-43 0 -83.5 -28t-72 -72t-60 -106t-48.5 -122.5t-37 -128.5q-5 -20 -11 -49q47 77 112.5 125.5t135.5 48.5q105 0 171.5 -77 t66.5 -214q0 -100 -29.5 -204t-82 -193t-135.5 -145t-181 -56q-156 0 -233.5 107t-77.5 291zM270 348q0 -182 115 -182q47 0 86.5 40t63 100t36.5 122t13 113q0 65 -28 106t-85 41q-98 0 -184 -176q-17 -91 -17 -164z" />
<glyph unicode="7" horiz-adv-x="745" d="M37 0l577 1178h-426l41 188h668l-33 -147l-592 -1219h-235z" />
<glyph unicode="8" horiz-adv-x="858" d="M16 268q0 140 82.5 265t237.5 188q-61 38 -102 112.5t-41 159.5q0 159 114.5 276t270.5 117q64 0 120.5 -15.5t104.5 -48t76 -90t28 -134.5q0 -151 -86 -259.5t-211 -148.5q74 -49 114 -128t40 -167q0 -182 -112 -301t-285 -119q-171 0 -261 70t-90 223zM240 311 q0 -72 34 -108.5t91 -36.5q74 0 131 78t57 188q0 76 -31.5 128.5t-64.5 68.5q-85 -28 -151 -114t-66 -204zM401 952q0 -56 26.5 -105t61.5 -73q80 31 139.5 103t59.5 188q0 62 -31 96.5t-88 34.5q-71 0 -119.5 -71.5t-48.5 -172.5z" />
<glyph unicode="9" horiz-adv-x="862" d="M14 174l148 135q11 -65 49.5 -103t97.5 -38q54 0 102.5 40.5t85.5 111t64 144.5t49 161q2 9 5 18t4.5 15.5t3.5 15.5q-47 -78 -112.5 -126t-137.5 -48q-103 0 -169.5 77t-66.5 214q0 80 18 163t54.5 161t86.5 139t120 98t149 37q156 0 234 -107t78 -291q0 -65 -10 -148.5 t-32.5 -181t-54.5 -193t-80 -184.5t-105 -157t-134 -109t-162 -41q-98 0 -175.5 53t-109.5 144zM358 823q0 -65 27 -106t84 -41q100 0 186 176q17 91 17 164q0 182 -115 182q-47 0 -86.5 -40t-63 -100t-36.5 -122t-13 -113z" />
<glyph unicode=":" horiz-adv-x="489" d="M27 98q0 59 42.5 101.5t100.5 42.5q51 0 86 -35.5t35 -85.5q0 -60 -42.5 -102t-101.5 -42q-51 0 -85.5 35t-34.5 86zM195 860q0 59 42.5 101.5t100.5 42.5q51 0 86 -35.5t35 -85.5q0 -60 -42.5 -102t-101.5 -42q-51 0 -85.5 35t-34.5 86z" />
<glyph unicode=";" horiz-adv-x="489" d="M-37 -176q59 28 111 75t71 97q-2 -2 -18 -2q-41 0 -70.5 29t-29.5 77q0 58 43.5 100t99.5 42q54 0 90.5 -36.5t36.5 -99.5q0 -102 -75.5 -204t-184.5 -156zM195 860q0 59 42.5 101.5t100.5 42.5q51 0 86 -35.5t35 -85.5q0 -60 -42.5 -102t-101.5 -42q-51 0 -85.5 35 t-34.5 86z" />
<glyph unicode="&#x3c;" horiz-adv-x="780" d="M84 616l31 138l725 293l-35 -158l-555 -211l463 -211l-33 -143z" />
<glyph unicode="=" horiz-adv-x="780" d="M41 424l29 127h661l-29 -127h-661zM129 817l29 127h659l-26 -127h-662z" />
<glyph unicode="&#x3e;" horiz-adv-x="780" d="M18 324l37 157l557 209l-462 213l30 144l596 -293l-31 -138z" />
<glyph unicode="?" horiz-adv-x="655" d="M115 98q0 59 42.5 101.5t100.5 42.5q51 0 86 -35.5t35 -85.5q0 -60 -43 -102t-103 -42q-50 0 -84 35t-34 86zM211 520q0 55 14 102.5t44.5 90.5t54 69.5t65.5 67.5q35 34 54.5 55t42.5 52t33.5 62.5t10.5 65.5q0 49 -29.5 85t-82.5 36q-70 0 -125 -49l-62 143 q117 89 248 89q119 0 196 -72.5t77 -175.5q0 -48 -13.5 -94t-30 -78t-50 -73t-53 -61.5t-60.5 -60.5q-39 -37 -59 -58t-45.5 -53t-36.5 -62t-11 -62q0 -52 15 -82l-175 -64q-22 55 -22 127z" />
<glyph unicode="@" horiz-adv-x="1269" d="M113 440q0 164 56 322.5t149.5 278.5t223.5 194t269 74q191 0 309.5 -134t118.5 -364q0 -173 -46 -320.5t-121.5 -232t-160.5 -84.5q-67 0 -111 38t-52 101l-3 17q-46 -72 -99.5 -114t-127.5 -42q-80 0 -135 60.5t-55 197.5q0 141 46.5 275t136.5 224.5t200 90.5 q59 0 96 -38.5t51 -102.5l23 108h172l-115 -538q-6 -30 -6 -58q0 -44 13.5 -64t45.5 -20q22 0 50.5 34.5t55.5 95t45.5 159t18.5 211.5q0 203 -96 314.5t-258 111.5q-99 0 -193.5 -44.5t-170 -122.5t-133 -177.5t-89 -216t-31.5 -232.5q0 -232 106.5 -373t301.5 -141 q83 0 152.5 29t140.5 86l37 -57q-164 -129 -340 -129q-222 0 -348.5 156.5t-126.5 426.5zM508 459q0 -146 90 -146q28 0 53.5 12t47 36.5t35 44t32.5 51.5l65 303q-25 121 -96 121q-52 0 -97 -42t-72 -107t-42.5 -137t-15.5 -136z" />
<glyph unicode="A" horiz-adv-x="815" d="M-104 0l579 1366h246l-23 -1366h-202l14 279h-293l-106 -279h-215zM285 467h239l33 696z" />
<glyph unicode="B" horiz-adv-x="882" d="M6 0l301 1366h297q143 0 223 -80.5t80 -206.5q0 -139 -74.5 -255.5t-195.5 -137.5q73 -22 110 -91t37 -153q0 -81 -23.5 -158t-67.5 -141t-117 -103.5t-164 -39.5h-406zM260 188h115q84 0 139 81t55 190q0 143 -139 143h-78zM393 791h109q56 0 98 42t61 97t19 110 q0 68 -36.5 103t-100.5 35h-64z" />
<glyph unicode="C" horiz-adv-x="843" d="M70 389q0 69 9.5 153t31 180.5t52.5 190t77 180t101 152t129 105t157 39.5q77 0 136 -30t93 -82t52 -113.5t22 -133.5l-199 -39q-13 207 -119 207q-73 0 -137.5 -96t-103 -232t-60.5 -268t-22 -219q0 -115 28 -166t86 -51q49 0 93 42.5t88 127.5l170 -74 q-140 -287 -363 -287q-154 0 -237.5 107.5t-83.5 306.5z" />
<glyph unicode="D" horiz-adv-x="931" d="M6 0l301 1366h299q63 0 119 -26t102.5 -77t73.5 -135.5t27 -191.5q0 -58 -8.5 -130.5t-29 -163.5t-51.5 -179t-80.5 -172.5t-111 -148.5t-148 -103t-186.5 -39h-307zM260 188h90q75 0 138.5 62t102.5 152.5t67 197.5t39.5 192.5t11.5 141.5q0 123 -41 183.5t-103 60.5 h-86z" />
<glyph unicode="E" horiz-adv-x="751" d="M6 0l301 1366h559l-41 -188h-346l-86 -387h332l-43 -189h-330l-92 -414h346l-41 -188h-559z" />
<glyph unicode="F" horiz-adv-x="747" d="M6 0l301 1366h559l-41 -188h-346l-86 -387h332l-43 -189h-330l-133 -602h-213z" />
<glyph unicode="G" horiz-adv-x="890" d="M70 389q0 74 10.5 161.5t32.5 184.5t54 189.5t78.5 177t101.5 148.5t127.5 101.5t152.5 37.5q61 0 110.5 -18.5t82 -50t55 -75t33 -90.5t12.5 -100l-183 -43q-11 186 -125 186q-72 0 -135.5 -92.5t-103 -225t-62 -267t-22.5 -230.5q0 -118 27 -167.5t87 -49.5 q43 0 77.5 25.5t72.5 74.5l57 269h-166l43 188h357l-119 -533q-139 -215 -334 -215q-155 0 -238 107t-83 307z" />
<glyph unicode="H" horiz-adv-x="948" d="M6 0l301 1366h213l-125 -569h289l125 569h215l-301 -1366h-215l135 608h-291l-133 -608h-213z" />
<glyph unicode="I" horiz-adv-x="446" d="M6 0l301 1366h213l-301 -1366h-213z" />
<glyph unicode="J" horiz-adv-x="690" d="M-76 70l92 168q24 -35 61 -53.5t75 -18.5q69 0 110 39t60 125l231 1036h213l-231 -1047q-40 -180 -127.5 -262t-239.5 -82q-74 0 -139 24.5t-105 70.5z" />
<glyph unicode="K" horiz-adv-x="917" d="M6 0l301 1366h213l-139 -635l440 635h248l-479 -645l205 -721h-228l-137 557l-129 -180l-82 -377h-213z" />
<glyph unicode="L" horiz-adv-x="718" d="M6 0l301 1366h213l-260 -1178h346l-41 -188h-559z" />
<glyph unicode="M" horiz-adv-x="1210" d="M6 0l301 1366h273l24 -846l404 846h278l-301 -1366h-211l209 952l-451 -952h-75l-27 952l-211 -952h-213z" />
<glyph unicode="N" horiz-adv-x="948" d="M6 0l301 1366h213l96 -872l193 872h215l-301 -1366h-203l-104 899l-197 -899h-213z" />
<glyph unicode="O" horiz-adv-x="940" d="M70 389q0 98 19 221.5t63.5 262t106.5 252.5t158.5 189t209.5 75q82 0 144.5 -32.5t100.5 -90.5t57 -132.5t19 -162.5q0 -67 -10 -150.5t-31.5 -179.5t-52.5 -189.5t-77.5 -180t-101.5 -152t-128.5 -105t-155.5 -39.5t-144.5 32t-100.5 89.5t-57 131t-19 161.5zM289 383 q0 -217 114 -217q71 0 135.5 93.5t104.5 226.5t63 266t23 225q0 221 -117 221q-72 0 -136 -93.5t-103 -227.5t-61.5 -267.5t-22.5 -226.5z" />
<glyph unicode="P" horiz-adv-x="856" d="M6 0l301 1366h303q134 0 217.5 -92.5t83.5 -239.5q0 -77 -18 -150t-55.5 -139t-91 -115.5t-130.5 -78.5t-167 -29h-115l-115 -522h-213zM375 711h90q53 0 96.5 27.5t70.5 72t41.5 97.5t14.5 108q0 79 -34.5 120.5t-92.5 41.5h-82z" />
<glyph unicode="Q" horiz-adv-x="940" d="M70 389q0 98 19 221.5t63.5 262t106.5 252.5t158.5 189t209.5 75q82 0 144.5 -32.5t100.5 -90.5t57 -132.5t19 -162.5q0 -98 -20.5 -223t-60.5 -259t-110 -254.5t-157 -185.5l14 -92l-161 -29l-9 52q-40 -5 -53 -5q-82 0 -144.5 32t-100.5 89.5t-57 131t-19 161.5z M289 383q0 -217 114 -217h11l-43 274l161 29l29 -176q74 128 121 337t47 347q0 221 -117 221q-72 0 -136 -93.5t-103 -227.5t-61.5 -267.5t-22.5 -226.5z" />
<glyph unicode="R" horiz-adv-x="897" d="M6 0l301 1366h301q134 0 219.5 -94.5t85.5 -235.5q0 -167 -81.5 -302.5t-190.5 -172.5l68 -561h-224l-43 522h-108l-115 -522h-213zM375 711h94q68 0 119.5 47t75.5 115.5t24 144.5q0 80 -33.5 120t-91.5 40h-84z" />
<glyph unicode="S" horiz-adv-x="774" d="M-41 125l127 158q32 -52 88 -84.5t113 -32.5q74 0 129 61.5t55 161.5q0 40 -20 82.5t-42 70.5t-65 74q-43 48 -64 74t-52 74t-44.5 97.5t-13.5 105.5q0 176 116.5 299t278.5 123q82 0 160.5 -32.5t128.5 -90.5l-117 -158q-67 90 -174 90q-74 0 -121 -57.5t-47 -136.5 q0 -37 19 -77t40.5 -67t63.5 -74q40 -46 63 -76t53 -78t44 -99.5t14 -108.5q0 -189 -114.5 -319t-290.5 -130q-102 0 -192 41.5t-136 108.5z" />
<glyph unicode="T" horiz-adv-x="708" d="M137 0l260 1178h-211l41 188h635l-41 -188h-211l-260 -1178h-213z" />
<glyph unicode="U" horiz-adv-x="950" d="M80 293q0 44 10 92l217 981h213l-221 -999q-6 -42 -6 -66q0 -66 35 -101.5t92 -35.5q64 0 106 47.5t66 155.5l219 999h213l-217 -989q-46 -205 -150 -303.5t-254 -98.5q-140 0 -231.5 86t-91.5 232z" />
<glyph unicode="V" horiz-adv-x="815" d="M174 0l23 1366h213l-58 -1090l422 1090h225l-579 -1366h-246z" />
<glyph unicode="W" horiz-adv-x="1202" d="M145 0l74 1366h215l-92 -989l360 989h172l-75 -989l344 989h221l-528 -1366h-220l86 954l-337 -954h-220z" />
<glyph unicode="X" horiz-adv-x="835" d="M-109 0l453 707l-135 659h225l64 -471l264 471h248l-432 -680l147 -686h-225l-78 494l-285 -494h-246z" />
<glyph unicode="Y" horiz-adv-x="829" d="M184 1366h219l64 -584l324 584h235l-489 -795l-125 -571h-213l125 571z" />
<glyph unicode="Z" horiz-adv-x="737" d="M-47 0l39 182l567 996h-346l41 188h598l-39 -174l-573 -1004h366l-41 -188h-612z" />
<glyph unicode="[" horiz-adv-x="399" d="M-125 -389l393 1778h291l-29 -136h-147l-336 -1507h148l-31 -135h-289z" />
<glyph unicode="\" horiz-adv-x="442" d="M182 -41v1448h140v-1448h-140z" />
<glyph unicode="]" horiz-adv-x="399" d="M-162 -389l31 135h147l334 1507h-147l28 136h293l-395 -1778h-291z" />
<glyph unicode="^" horiz-adv-x="684" d="M78 682l383 684h143l80 -684h-139l-43 526l-275 -526h-149z" />
<glyph unicode="_" horiz-adv-x="571" d="M-164 -217l31 135h582l-31 -135h-582z" />
<glyph unicode="`" horiz-adv-x="335" d="M207 1434h174l96 -295h-125z" />
<glyph unicode="a" horiz-adv-x="831" d="M37 281q0 79 15 173t47 193.5t76.5 181t110.5 133.5t142 52q68 0 117.5 -39t70.5 -119l31 133h191l-220 -989h-192l29 123q-91 -148 -209 -148q-101 0 -155 78.5t-54 227.5zM236 303q0 -158 104 -158q40 0 81.5 40.5t67.5 97.5l95 422q-6 60 -39 99.5t-76 39.5 q-56 0 -102.5 -61.5t-73.5 -151t-42 -177t-15 -151.5z" />
<glyph unicode="b" horiz-adv-x="831" d="M-6 0l299 1366h192l-110 -500q91 148 209 148q102 0 155.5 -78t53.5 -227q0 -79 -15 -173t-47 -194t-76.5 -181.5t-111 -133.5t-142.5 -52q-144 0 -188 158l-29 -133h-190zM246 285q6 -60 39 -100t77 -40q55 0 101.5 62t73.5 151t42 177t15 151q0 158 -105 158 q-40 0 -81.5 -40t-67.5 -97z" />
<glyph unicode="c" horiz-adv-x="681" d="M43 332q0 88 18.5 181.5t57 183t91 160t127 114t159.5 43.5q73 0 134 -27.5t97 -73.5l-96 -143q-42 74 -123 74q-61 0 -113.5 -51.5t-84.5 -129t-50 -161.5t-18 -156q0 -102 39 -151.5t108 -49.5q66 0 123 60l39 -152q-87 -78 -203 -78q-143 0 -224 91t-81 266z" />
<glyph unicode="d" horiz-adv-x="831" d="M37 281q0 79 15 173t47 193.5t76.5 181t110.5 133.5t142 52q68 0 117.5 -39t70.5 -119l113 510h193l-304 -1366h-192l29 123q-91 -148 -209 -148q-101 0 -155 78.5t-54 227.5zM236 303q0 -158 104 -158q40 0 81.5 40.5t67.5 97.5l95 422q-6 60 -39 99.5t-76 39.5 q-56 0 -102.5 -61.5t-73.5 -151t-42 -177t-15 -151.5z" />
<glyph unicode="e" horiz-adv-x="800" d="M41 334q0 71 16 156.5t51.5 179t85 169.5t125.5 125.5t164 49.5q139 0 211 -82.5t72 -241.5q0 -97 -39 -258h-494q-12 -47 -12 -108q0 -82 40.5 -136.5t127.5 -54.5q44 0 90.5 26.5t83.5 69.5l74 -118q-58 -65 -131.5 -100.5t-149.5 -35.5q-149 0 -232 93t-83 266z M260 569h313q17 70 17 123q0 72 -32 118t-89 46q-44 0 -81.5 -27.5t-62.5 -72.5t-41 -92t-24 -95z" />
<glyph unicode="f" horiz-adv-x="489" d="M23 0l182 821h-94l36 168h95l26 129q58 268 273 268q72 0 129 -26l-66 -156q-20 13 -43 13q-77 0 -100 -99l-27 -129h129l-39 -168h-127l-182 -821h-192z" />
<glyph unicode="g" horiz-adv-x="831" d="M-72 -281l105 150q30 -45 80.5 -72.5t109.5 -27.5q76 0 125.5 54t75.5 171l39 156q-87 -148 -211 -148q-101 0 -157 74t-56 219q0 77 13.5 168t44.5 189.5t74.5 178.5t111 131.5t147.5 51.5q60 0 117 -42.5t71 -115.5l29 133h191l-215 -971q-27 -119 -67 -202.5t-92 -130 t-109 -66.5t-128 -20q-93 0 -172 30.5t-127 89.5zM238 330q0 -85 26.5 -121.5t79.5 -36.5q41 0 82.5 39.5t69.5 97.5l88 396q-8 56 -42 97.5t-77 41.5q-54 0 -99 -57t-72 -140.5t-41.5 -168t-14.5 -148.5z" />
<glyph unicode="h" d="M-8 0l301 1366h192l-110 -504q48 67 111.5 109.5t134.5 42.5q82 0 127 -44.5t45 -115.5q0 -16 -9 -61l-174 -793h-192l162 727q6 24 6 45q0 72 -70 72q-47 0 -95 -43t-85 -105l-152 -696h-192z" />
<glyph unicode="i" horiz-adv-x="397" d="M-8 0l219 989h192l-219 -989h-192zM242 1257q0 62 44 101t95 39q47 0 79 -32t32 -75q0 -62 -44 -99.5t-96 -37.5q-47 0 -78.5 30.5t-31.5 73.5z" />
<glyph unicode="j" horiz-adv-x="397" d="M-215 -381l61 166q16 -8 35 -8q31 0 51 24t33 88l246 1100h192l-245 -1100q-35 -155 -96 -222.5t-177 -67.5q-59 0 -100 20zM242 1257q0 62 44 101t95 39q47 0 79 -32t32 -75q0 -62 -44 -99.5t-96 -37.5q-47 0 -78.5 30.5t-31.5 73.5z" />
<glyph unicode="k" horiz-adv-x="788" d="M-8 0l301 1366h192l-190 -860l362 483h215l-340 -440l125 -549h-204l-74 424l-143 -184l-52 -240h-192z" />
<glyph unicode="l" horiz-adv-x="397" d="M-8 0l301 1366h192l-301 -1366h-192z" />
<glyph unicode="m" horiz-adv-x="1249" d="M-8 0l219 989h192l-28 -127q47 67 112.5 109.5t133.5 42.5q76 0 124 -42t48 -102q0 -10 -2 -20q50 73 117 118.5t136 45.5q80 0 127.5 -42.5t47.5 -115.5q0 -27 -9 -63l-174 -793h-192l160 727q8 24 8 45q0 72 -70 72q-47 0 -96 -44t-84 -104l-152 -696h-192l162 727 q6 36 6 47q0 70 -70 70q-48 0 -95 -43t-85 -105l-152 -696h-192z" />
<glyph unicode="n" d="M-8 0l219 989h192l-28 -127q48 67 111.5 109.5t134.5 42.5q79 0 125.5 -43t46.5 -117q0 -34 -9 -61l-174 -793h-192l162 727q6 30 6 45q0 72 -70 72q-47 0 -95 -43t-85 -105l-152 -696h-192z" />
<glyph unicode="o" d="M41 319q0 87 18 181.5t55 186.5t88.5 164.5t125 117.5t157.5 45q141 0 217 -88.5t76 -255.5q0 -87 -18 -181.5t-55 -186.5t-88.5 -164.5t-125 -117.5t-157.5 -45q-140 0 -216.5 89t-76.5 255zM236 315q0 -92 28 -131t82 -39t101.5 59.5t76 145.5t44.5 172.5t16 149.5 q0 172 -109 172q-55 0 -102.5 -59.5t-76 -146t-44.5 -173.5t-16 -150z" />
<glyph unicode="p" horiz-adv-x="831" d="M-90 -377l301 1366h192l-28 -123q91 148 209 148q102 0 155.5 -78t53.5 -227q0 -79 -15 -173t-47 -194t-76.5 -181.5t-111 -133.5t-142.5 -52q-144 0 -188 158l-113 -510h-190zM246 285q6 -60 39 -100t77 -40q55 0 101.5 62t73.5 151t42 177t15 151q0 158 -105 158 q-40 0 -81.5 -40t-67.5 -97z" />
<glyph unicode="q" horiz-adv-x="831" d="M37 281q0 79 15 173t47 193.5t76.5 181t110.5 133.5t142 52q68 0 117.5 -39t70.5 -119l29 133h193l-303 -1366h-193l113 500q-91 -148 -209 -148q-101 0 -155 78.5t-54 227.5zM236 303q0 -158 104 -158q40 0 81.5 40.5t67.5 97.5l95 422q-6 60 -39 99.5t-76 39.5 q-56 0 -102.5 -61.5t-73.5 -151t-42 -177t-15 -151.5z" />
<glyph unicode="r" horiz-adv-x="548" d="M-8 0l219 989h192l-28 -133q89 156 260 156l-45 -193q-24 8 -51 8q-116 0 -205 -147l-150 -680h-192z" />
<glyph unicode="s" horiz-adv-x="675" d="M-43 117l109 125q30 -50 79 -81.5t111 -31.5q59 0 100 41.5t41 99.5q0 31 -18.5 61.5t-38.5 49t-61 51.5q-39 31 -61.5 51.5t-51 54.5t-42 74.5t-13.5 87.5q0 130 85 222t232 92q78 0 151.5 -34.5t118.5 -94.5l-104 -121q-21 40 -69 68t-101 28q-57 0 -92 -34.5 t-35 -90.5q0 -27 19 -55t36.5 -43t59.5 -49q43 -34 64.5 -54t53 -57t46 -79t14.5 -91q0 -137 -94.5 -234.5t-243.5 -97.5q-98 0 -178.5 39.5t-116.5 102.5z" />
<glyph unicode="t" horiz-adv-x="505" d="M59 139q0 35 11 80l135 602h-96l36 168h97l59 271h193l-60 -271h129l-39 -168h-127l-127 -569q-8 -32 -8 -51q0 -56 57 -56q27 0 56 19l12 -154q-53 -35 -125 -35q-203 0 -203 164z" />
<glyph unicode="u" d="M29 135q0 38 8 62l174 792h192l-161 -727q-6 -27 -6 -45q0 -72 69 -72q47 0 93.5 40.5t82.5 101.5l156 702h192l-219 -989h-192l28 127q-49 -67 -112 -109.5t-133 -42.5q-79 0 -125.5 43t-46.5 117z" />
<glyph unicode="v" horiz-adv-x="731" d="M119 989h198l-16 -749l320 749h208l-471 -989h-208z" />
<glyph unicode="w" horiz-adv-x="1185" d="M127 989h192l-24 -725l303 725h186l-10 -725l297 725h207l-442 -989h-201l6 727l-311 -727h-201z" />
<glyph unicode="x" horiz-adv-x="720" d="M-96 0l336 500l-107 489h199l53 -344l209 344h209l-326 -489l119 -500h-201l-61 354l-219 -354h-211z" />
<glyph unicode="y" horiz-adv-x="731" d="M-117 -379l64 160q12 -12 47 -12q28 0 47.5 18t42.5 61l63 132l-28 1009h198l-16 -745l320 745h208l-565 -1182q-59 -119 -117 -163.5t-139 -44.5q-70 0 -125 22z" />
<glyph unicode="z" horiz-adv-x="657" d="M-49 0l31 147l444 674h-293l37 168h526l-30 -141l-447 -680h303l-37 -168h-534z" />
<glyph unicode="{" horiz-adv-x="434" d="M-37 -209q0 31 8 55l101 455q4 20 4 39q0 46 -20.5 73t-59.5 27l27 119q106 0 137 139l102 459q26 115 97 173.5t178 58.5h59l-31 -136h-59q-37 0 -63.5 -24t-36.5 -72l-109 -491q-16 -73 -46 -117t-87 -66q59 -29 59 -112q0 -37 -8 -70l-98 -448q-6 -36 -6 -37 q0 -32 18 -52t43 -20h59l-30 -133h-45q-76 0 -134 50t-59 130z" />
<glyph unicode="|" horiz-adv-x="366" d="M158 -41v1448h133v-1448h-133z" />
<glyph unicode="}" horiz-adv-x="434" d="M-164 -389l31 135h59q37 0 64 24t37 72l108 492q16 73 46 116.5t87 65.5q-59 29 -59 113q0 36 8 69l98 449q0 3 3.5 16.5t3.5 20.5q0 33 -18 52t-44 19h-59l30 134h45q76 0 134.5 -51t58.5 -132q0 -29 -8 -53l-101 -455q-4 -20 -4 -41q0 -44 20.5 -71t59.5 -27l-26 -119 q-107 0 -138 -139l-102 -459q-26 -115 -96.5 -173t-177.5 -58h-60z" />
<glyph unicode="~" horiz-adv-x="833" d="M135 870q101 494 328 494q34 0 59.5 -9.5t41.5 -29.5t25.5 -40.5t14 -53t6 -54.5t2.5 -57q2 -37 3.5 -54t6.5 -40.5t15.5 -33t26.5 -9.5q82 0 167 383l136 -12q-101 -496 -326 -496q-30 0 -53.5 8.5t-39 20.5t-27 33.5t-17.5 39.5t-10 47t-5 47t-2 48q-1 36 -2.5 54 t-6 40t-14.5 31.5t-26 9.5q-83 0 -168 -381z" />
<glyph unicode="&#xa1;" horiz-adv-x="489" d="M-66 -379l248 961h164l-176 -961h-236zM199 866q0 60 42.5 102t102.5 42q50 0 84.5 -35t34.5 -86q0 -59 -42.5 -101.5t-101.5 -42.5q-51 0 -85.5 35.5t-34.5 85.5z" />
<glyph unicode="&#xa2;" horiz-adv-x="681" d="M43 332q0 107 29 221.5t81 215t135.5 169t182.5 76.5l33 143h145l-37 -164q72 -25 115 -80l-96 -143q-19 37 -58 57l-149 -677q47 11 88 55l39 -152q-73 -67 -164 -76l-41 -182h-145l43 195q-96 30 -148.5 116t-52.5 226zM242 346q0 -109 45 -160l141 633 q-84 -53 -135 -198t-51 -275z" />
<glyph unicode="&#xa3;" horiz-adv-x="829" d="M8 135q104 61 175 170.5t71 222.5q0 23 -2 33h-178l28 129h125q-2 2 -2 4q-35 115 -35 201q0 102 36.5 194.5t95 157t134 102t152.5 37.5q127 0 212 -71t89 -201l-184 -55q-10 151 -115 151q-75 0 -133.5 -101t-58.5 -241q0 -46 22 -141q2 -6 5.5 -18.5t5.5 -18.5h149 l-29 -129h-112q-12 -111 -66.5 -207.5t-128.5 -148.5q40 18 72 18q44 0 115 -30q60 -27 94 -27q78 0 139 65l25 -172q-36 -37 -89.5 -60.5t-113.5 -23.5q-38 0 -73.5 8t-54 16t-48.5 24q-67 36 -119 36q-72 0 -168 -73z" />
<glyph unicode="&#xa4;" horiz-adv-x="858" d="M-43 260l172 139q-20 64 -20 148q0 126 37.5 246t105.5 208l-113 146l133 108l107 -141q73 43 160 43q110 0 184 -55l168 137l104 -131l-178 -143q23 -74 23 -152q0 -124 -38 -244.5t-106 -208.5l113 -145l-133 -109l-107 140q-74 -41 -159 -41q-115 0 -187 57l-164 -133 zM297 551q0 -80 30.5 -127t96.5 -47q67 0 121.5 73t81 170t26.5 187q0 82 -30.5 131t-96.5 49q-69 0 -123.5 -73t-80 -171t-25.5 -192z" />
<glyph unicode="&#xa5;" horiz-adv-x="829" d="M-10 246l28 127h265l43 198h-263l27 127h213l-117 668h220l63 -584l324 584h235l-412 -668h205l-26 -127h-256l-43 -198h254l-29 -127h-254l-53 -246h-213l53 246h-264z" />
<glyph unicode="&#xa6;" horiz-adv-x="366" d="M158 -41v647h133v-647h-133zM158 760v647h133v-647h-133z" />
<glyph unicode="&#xa7;" horiz-adv-x="677" d="M-86 -33l111 123q62 -110 188 -110q64 0 108 49t44 118q0 34 -19.5 65.5t-39.5 49.5t-60 49q-33 26 -47.5 38.5t-41.5 40.5t-39 51t-23 59t-11 75q0 103 60.5 180.5t164.5 100.5q-53 43 -82.5 101.5t-29.5 121.5q0 131 90 219t215 88q197 0 289 -126l-107 -107 q-59 94 -172 94q-57 0 -94 -43t-37 -102q0 -34 20.5 -67t40 -50.5t62.5 -52.5q38 -30 59.5 -49.5t49 -52t40.5 -70t13 -82.5q0 -103 -53.5 -181.5t-155.5 -119.5q44 -38 70 -93t26 -110q0 -140 -94 -240t-234 -100q-228 0 -311 133zM262 612q0 -44 24.5 -87.5t71.5 -75.5 q127 52 127 184q0 82 -67 149q-85 -14 -120.5 -60.5t-35.5 -109.5z" />
<glyph unicode="&#xa8;" horiz-adv-x="630" d="M219 1262q0 47 38 83.5t87 36.5q42 0 70 -28t28 -70q0 -47 -38 -84t-87 -37q-41 0 -69.5 28.5t-28.5 70.5zM532 1262q0 47 38 83.5t87 36.5q42 0 70.5 -28t28.5 -70q0 -47 -38 -84t-87 -37q-42 0 -70.5 28.5t-28.5 70.5z" />
<glyph unicode="&#xa9;" horiz-adv-x="1593" d="M131 684q0 191 94.5 354t257 258t353.5 95q143 0 274 -56t226 -151t151.5 -226t56.5 -274t-56.5 -274t-151.5 -226t-226 -151t-274 -56q-191 0 -353.5 95t-257 258t-94.5 354zM199 684q0 -129 50.5 -247t136 -204t203.5 -137t247 -51t247.5 51t204.5 137t137.5 204 t51.5 247t-51.5 247t-137.5 204t-204.5 137t-247.5 51t-247 -51t-203.5 -137t-136 -204t-50.5 -247zM408 629q0 102 40.5 194.5t107.5 157t154.5 102t178.5 37.5q221 0 321 -164l-67 -49q-37 69 -103 105.5t-153 36.5q-97 0 -188 -53t-150.5 -151t-59.5 -214 q0 -128 86.5 -218.5t225.5 -90.5q64 0 127 27.5t108 70.5l43 -62q-127 -108 -278 -108q-179 0 -286 107.5t-107 271.5z" />
<glyph unicode="&#xaa;" horiz-adv-x="622" d="M145 872q0 71 18.5 149t52 147t87 114t115.5 45q44 0 81.5 -25.5t55.5 -72.5l18 82h144l-142 -643h-143l19 84q-64 -101 -150 -101q-72 0 -114 54t-42 167zM293 883q0 -56 19.5 -86.5t56.5 -30.5q53 0 106 92l57 270q-5 36 -27 60t-52 24q-45 0 -83 -57t-57.5 -131.5 t-19.5 -140.5z" />
<glyph unicode="&#xab;" horiz-adv-x="735" d="M59 498l267 362h157l-272 -371l100 -360h-149zM334 498l266 362h158l-273 -371l101 -360h-150z" />
<glyph unicode="&#xac;" horiz-adv-x="780" d="M129 817l29 127h659l-115 -520h-131l86 393h-528z" />
<glyph unicode="&#xad;" horiz-adv-x="487" d="M41 412l37 166h364l-34 -166h-367z" />
<glyph unicode="&#xae;" horiz-adv-x="1011" d="M172 952q0 181 127 307.5t307 126.5q119 0 219 -57.5t157.5 -157.5t57.5 -219q0 -180 -127.5 -307t-308.5 -127q-180 0 -306 127t-126 307zM233 952q0 -154 108 -263t263 -109t265 109t110 263q0 156 -109.5 264.5t-265.5 108.5q-155 0 -263 -108t-108 -265zM385 702 l109 498h188q63 0 104 -36t41 -95q0 -71 -50.5 -119.5t-112.5 -48.5l90 -199h-80l-86 197h-92l-43 -197h-68zM508 961h137q45 0 78 29t33 71q0 38 -24 59t-62 21h-121z" />
<glyph unicode="&#xaf;" horiz-adv-x="520" d="M188 1163l29 117h438l-28 -117h-439z" />
<glyph unicode="&#xb0;" horiz-adv-x="610" d="M184 1126q0 107 75.5 183.5t182.5 76.5t183.5 -76.5t76.5 -183.5t-76.5 -182.5t-183.5 -75.5t-182.5 75.5t-75.5 182.5zM299 1126q0 -60 40.5 -101.5t100.5 -41.5q61 0 105.5 42t44.5 101q0 60 -44 103t-104 43t-101.5 -43t-41.5 -103z" />
<glyph unicode="&#xb1;" horiz-adv-x="780" d="M-37 70l29 127h659l-26 -127h-662zM88 627l27 127h262l63 293h140l-64 -293h260l-28 -127h-261l-69 -305h-137l67 305h-260z" />
<glyph unicode="&#xb2;" horiz-adv-x="575" d="M139 862l27 119q265 239 347.5 333.5t82.5 166.5q0 43 -26 67.5t-68 24.5q-87 0 -158 -96l-76 96q108 121 244 121q101 0 168.5 -53t67.5 -146q0 -36 -9 -70t-35.5 -74.5t-51.5 -73t-80 -86.5t-97 -93t-125 -115h291l-27 -121h-475z" />
<glyph unicode="&#xb3;" horiz-adv-x="575" d="M152 991l112 82q15 -48 50.5 -76t82.5 -28q59 0 92 50.5t33 110.5q0 45 -26.5 69t-67.5 24q-45 0 -57 -2l26 120q10 -2 66 -2q57 0 94 39.5t37 104.5q0 41 -26 65.5t-70 24.5q-83 0 -150 -86l-78 84q101 123 240 123q107 0 170 -50t63 -141q0 -77 -50.5 -146.5 t-135.5 -82.5q55 -17 83 -60.5t28 -103.5q0 -98 -73.5 -180t-191.5 -82q-90 0 -156.5 38t-94.5 105z" />
<glyph unicode="&#xb4;" horiz-adv-x="335" d="M137 1139l228 295h178l-277 -295h-129z" />
<glyph unicode="&#xb5;" horiz-adv-x="845" d="M-90 -377l301 1366h192l-161 -731q-12 -55 4.5 -85t58.5 -30q47 0 93.5 40.5t82.5 101.5l156 704h192l-167 -753q-11 -43 -3 -67t39 -24q6 0 31 5l-20 -162q-43 -13 -95 -13q-88 0 -119.5 41.5t-23.5 133.5q-37 -80 -91.5 -127.5t-109.5 -47.5q-54 0 -82 39l-86 -391 h-192z" />
<glyph unicode="&#xb6;" horiz-adv-x="919" d="M162 981q0 97 50.5 185t143 144t203.5 56h424l-348 -1571h-107l328 1467h-174l-328 -1467h-104l192 867q-116 0 -198 91t-82 228z" />
<glyph unicode="&#xb7;" horiz-adv-x="489" d="M113 489q0 59 42.5 101.5t100.5 42.5q51 0 86 -35.5t35 -85.5q0 -60 -43 -101.5t-103 -41.5q-50 0 -84 34.5t-34 85.5z" />
<glyph unicode="&#xb8;" horiz-adv-x="358" d="M-182 -317l57 79q49 -65 125 -65q40 0 66 27t26 63q0 49 -47 49q-30 0 -53 -26l-68 43l103 170h104l-84 -134q21 21 49 21q45 0 74 -32.5t29 -84.5q0 -79 -58 -133.5t-143 -54.5q-111 0 -180 78z" />
<glyph unicode="&#xb9;" horiz-adv-x="475" d="M233 1454l275 227h129l-180 -819h-150l135 619l-137 -117z" />
<glyph unicode="&#xba;" horiz-adv-x="614" d="M152 891q0 68 20 142t57 141t98 110t134 43q106 0 161.5 -64.5t55.5 -175.5q0 -68 -20 -142t-57 -141t-98 -110t-134 -43q-106 0 -161.5 64.5t-55.5 175.5zM295 883q0 -115 80 -115q39 0 71 38.5t49.5 93.5t27 107t9.5 87q0 114 -79 114q-39 0 -71 -38t-50 -93 t-27.5 -106.5t-9.5 -87.5z" />
<glyph unicode="&#xbb;" horiz-adv-x="735" d="M-23 129l273 371l-100 360h149l102 -368l-266 -363h-158zM252 129l272 371l-100 360h149l103 -368l-266 -363h-158z" />
<glyph unicode="&#xbc;" horiz-adv-x="1247" d="M162 0l866 1366h96l-868 -1366h-94zM164 1139l274 227h129l-180 -819h-149l135 618l-137 -116zM635 195l24 118l377 506h181l-111 -506h70l-25 -118h-72l-43 -195h-147l41 195h-295zM788 313h168l74 332z" />
<glyph unicode="&#xbd;" horiz-adv-x="1306" d="M162 0l866 1366h96l-868 -1366h-94zM164 1139l274 227h129l-180 -819h-149l135 618l-137 -116zM680 0l27 119q184 166 267.5 249t123 141.5t39.5 108.5q0 43 -26.5 68t-68.5 25q-85 0 -157 -97l-76 97q107 120 244 120q101 0 168 -52.5t67 -145.5q0 -31 -9 -62.5 t-21.5 -59.5t-41.5 -65t-54 -65.5t-75 -77t-88 -83.5t-108 -99h291l-27 -121h-475z" />
<glyph unicode="&#xbe;" horiz-adv-x="1347" d="M82 676l113 82q15 -48 50.5 -76.5t82.5 -28.5q59 0 92 51t33 111q0 45 -27 68.5t-68 23.5q-45 0 -57 -2l27 121q10 -2 65 -2q57 0 94 39t37 104q0 41 -26 65.5t-70 24.5q-82 0 -149 -86l-78 84q101 123 239 123q108 0 171 -49.5t63 -140.5q0 -77 -51 -147t-136 -83 q55 -17 83 -60.5t28 -102.5q0 -98 -73 -180.5t-191 -82.5q-90 0 -157 38.5t-95 105.5zM262 0l866 1366h97l-869 -1366h-94zM735 195l25 118l377 506h180l-111 -506h70l-25 -118h-71l-43 -195h-148l41 195h-295zM889 313h168l73 332z" />
<glyph unicode="&#xbf;" horiz-adv-x="573" d="M-100 -152q0 48 13.5 94t29.5 78.5t49 73t53.5 61.5t60.5 60q51 49 77.5 77t50.5 72.5t24 86.5q0 49 -14 81l176 62q20 -50 20 -125q0 -45 -11.5 -87t-25 -71t-42.5 -66t-46 -54.5t-53 -53.5q-37 -37 -53.5 -55t-41 -50.5t-34.5 -63t-10 -64.5q0 -51 28.5 -86t81.5 -35 q69 0 125 47l62 -141q-112 -88 -246 -88q-121 0 -197.5 71.5t-76.5 175.5zM272 868q0 58 43.5 100t102.5 42q51 0 85 -35t34 -86q0 -58 -42.5 -99.5t-101.5 -41.5q-51 0 -86 34.5t-35 85.5z" />
<glyph unicode="&#xc0;" horiz-adv-x="815" d="M-104 0l579 1366h246l-23 -1366h-202l14 279h-293l-106 -279h-215zM285 467h239l33 696zM420 1776h174l96 -295h-125z" />
<glyph unicode="&#xc1;" horiz-adv-x="815" d="M-104 0l579 1366h246l-23 -1366h-202l14 279h-293l-106 -279h-215zM285 467h239l33 696zM559 1481l227 295h179l-277 -295h-129z" />
<glyph unicode="&#xc2;" horiz-adv-x="815" d="M-104 0l579 1366h246l-23 -1366h-202l14 279h-293l-106 -279h-215zM285 467h239l33 696zM406 1481l196 295h178l70 -295h-105l-73 200l-152 -200h-114z" />
<glyph unicode="&#xc3;" horiz-adv-x="815" d="M-104 0l579 1366h246l-23 -1366h-202l14 279h-293l-106 -279h-215zM285 467h239l33 696zM377 1489q61 274 203 274q26 0 46 -9t32.5 -26.5t19 -31.5t14.5 -37q8 -24 12.5 -34.5t14.5 -21t24 -10.5q48 0 84 158h105q-26 -125 -77.5 -199.5t-127.5 -74.5q-26 0 -45.5 8.5 t-32 26.5t-19 32t-14.5 37q-8 24 -12.5 34.5t-14.5 21t-24 10.5q-48 0 -84 -158h-104z" />
<glyph unicode="&#xc4;" horiz-adv-x="815" d="M-104 0l579 1366h246l-23 -1366h-202l14 279h-293l-106 -279h-215zM285 467h239l33 696zM391 1604q0 47 38 83.5t87 36.5q42 0 70 -28t28 -70q0 -47 -38 -84t-87 -37q-41 0 -69.5 28.5t-28.5 70.5zM705 1604q0 47 37.5 83.5t86.5 36.5q42 0 70.5 -28t28.5 -70 q0 -47 -38 -84t-87 -37q-41 0 -69.5 28.5t-28.5 70.5z" />
<glyph unicode="&#xc5;" horiz-adv-x="815" d="M-104 0l579 1366h246l-23 -1366h-202l14 279h-293l-106 -279h-215zM285 467h239l33 696zM481 1610q0 78 59.5 137t137.5 59q69 0 113.5 -45.5t44.5 -115.5q0 -78 -59.5 -137.5t-137.5 -59.5q-70 0 -114 45.5t-44 116.5zM571 1618q0 -34 21.5 -57t54.5 -23q40 0 70.5 29.5 t30.5 68.5q0 34 -22 57t-54 23q-40 0 -70.5 -29.5t-30.5 -68.5z" />
<glyph unicode="&#xc6;" horiz-adv-x="1196" d="M-92 0l754 1366h651l-41 -188h-344l-86 -387h332l-44 -189h-331l-90 -414h344l-41 -188h-559l61 279h-248l-143 -279h-215zM360 467h197l152 694z" />
<glyph unicode="&#xc7;" horiz-adv-x="843" d="M70 389q0 69 9.5 153t31 180.5t52.5 190t77 180t101 152t129 105t157 39.5q77 0 136 -30t93 -82t52 -113.5t22 -133.5l-199 -39q-13 207 -119 207q-73 0 -137.5 -96t-103 -232t-60.5 -268t-22 -219q0 -115 28 -166t86 -51q49 0 93 42.5t88 127.5l170 -74 q-140 -287 -363 -287h-6l-55 -86q21 21 49 21q45 0 73.5 -32.5t28.5 -84.5q0 -80 -57.5 -134t-142.5 -54q-112 0 -181 78l58 79q49 -65 125 -65q40 0 66 27t26 63q0 49 -47 49q-31 0 -54 -26l-67 43l82 137q-106 32 -162.5 134t-56.5 265z" />
<glyph unicode="&#xc8;" horiz-adv-x="751" d="M6 0l301 1366h559l-41 -188h-346l-86 -387h332l-43 -189h-330l-92 -414h346l-41 -188h-559zM416 1776h174l96 -295h-125z" />
<glyph unicode="&#xc9;" horiz-adv-x="751" d="M6 0l301 1366h559l-41 -188h-346l-86 -387h332l-43 -189h-330l-92 -414h346l-41 -188h-559zM555 1481l227 295h179l-277 -295h-129z" />
<glyph unicode="&#xca;" horiz-adv-x="751" d="M6 0l301 1366h559l-41 -188h-346l-86 -387h332l-43 -189h-330l-92 -414h346l-41 -188h-559zM401 1481l197 295h178l70 -295h-105l-73 200l-152 -200h-115z" />
<glyph unicode="&#xcb;" horiz-adv-x="751" d="M6 0l301 1366h559l-41 -188h-346l-86 -387h332l-43 -189h-330l-92 -414h346l-41 -188h-559zM387 1604q0 47 38 83.5t87 36.5q42 0 70 -28t28 -70q0 -47 -38 -84t-87 -37q-41 0 -69.5 28.5t-28.5 70.5zM700 1604q0 47 38 83.5t87 36.5q42 0 70.5 -28t28.5 -70 q0 -47 -38 -84t-87 -37q-42 0 -70.5 28.5t-28.5 70.5z" />
<glyph unicode="&#xcc;" horiz-adv-x="446" d="M6 0l301 1366h213l-301 -1366h-213zM236 1776h174l96 -295h-125z" />
<glyph unicode="&#xcd;" horiz-adv-x="446" d="M6 0l301 1366h213l-301 -1366h-213zM375 1481l227 295h178l-276 -295h-129z" />
<glyph unicode="&#xce;" horiz-adv-x="446" d="M6 0l301 1366h213l-301 -1366h-213zM221 1481l197 295h178l70 -295h-105l-74 200l-151 -200h-115z" />
<glyph unicode="&#xcf;" horiz-adv-x="446" d="M6 0l301 1366h213l-301 -1366h-213zM207 1604q0 47 38 83.5t87 36.5q42 0 70 -28t28 -70q0 -47 -38 -84t-87 -37q-41 0 -69.5 28.5t-28.5 70.5zM520 1604q0 47 38 83.5t87 36.5q42 0 70 -28t28 -70q0 -47 -38 -84t-87 -37q-42 0 -70 28.5t-28 70.5z" />
<glyph unicode="&#xd0;" horiz-adv-x="974" d="M49 0l131 596h-123l39 174h123l131 596h299q63 0 119 -26t102.5 -77t73.5 -135.5t27 -191.5q0 -58 -8.5 -130.5t-29 -163.5t-51.5 -179t-80.5 -172.5t-111 -148.5t-148 -103t-186.5 -39h-307zM303 188h90q75 0 138.5 62t102.5 152.5t67 197.5t39.5 192.5t11.5 141.5 q0 123 -41 183.5t-103 60.5h-86l-90 -408h156l-39 -174h-156z" />
<glyph unicode="&#xd1;" horiz-adv-x="948" d="M6 0l301 1366h213l96 -872l193 872h215l-301 -1366h-203l-104 899l-197 -899h-213zM444 1489q61 274 203 274q26 0 46 -9t33 -26.5t19.5 -32t14.5 -36.5q8 -24 12.5 -34.5t14.5 -21t24 -10.5q48 0 84 158h104q-27 -125 -77.5 -199.5t-126.5 -74.5q-26 0 -45.5 8.5 t-32 26.5t-19 32t-14.5 37q-8 24 -12.5 34.5t-14.5 21t-24 10.5q-48 0 -84 -158h-105z" />
<glyph unicode="&#xd2;" horiz-adv-x="940" d="M70 389q0 98 19 221.5t63.5 262t106.5 252.5t158.5 189t209.5 75q82 0 144.5 -32.5t100.5 -90.5t57 -132.5t19 -162.5q0 -67 -10 -150.5t-31.5 -179.5t-52.5 -189.5t-77.5 -180t-101.5 -152t-128.5 -105t-155.5 -39.5t-144.5 32t-100.5 89.5t-57 131t-19 161.5zM289 383 q0 -217 114 -217q71 0 135.5 93.5t104.5 226.5t63 266t23 225q0 221 -117 221q-72 0 -136 -93.5t-103 -227.5t-61.5 -267.5t-22.5 -226.5zM479 1776h174l97 -295h-125z" />
<glyph unicode="&#xd3;" horiz-adv-x="940" d="M70 389q0 98 19 221.5t63.5 262t106.5 252.5t158.5 189t209.5 75q82 0 144.5 -32.5t100.5 -90.5t57 -132.5t19 -162.5q0 -67 -10 -150.5t-31.5 -179.5t-52.5 -189.5t-77.5 -180t-101.5 -152t-128.5 -105t-155.5 -39.5t-144.5 32t-100.5 89.5t-57 131t-19 161.5zM289 383 q0 -217 114 -217q71 0 135.5 93.5t104.5 226.5t63 266t23 225q0 221 -117 221q-72 0 -136 -93.5t-103 -227.5t-61.5 -267.5t-22.5 -226.5zM618 1481l228 295h178l-276 -295h-130z" />
<glyph unicode="&#xd4;" horiz-adv-x="940" d="M70 389q0 98 19 221.5t63.5 262t106.5 252.5t158.5 189t209.5 75q82 0 144.5 -32.5t100.5 -90.5t57 -132.5t19 -162.5q0 -67 -10 -150.5t-31.5 -179.5t-52.5 -189.5t-77.5 -180t-101.5 -152t-128.5 -105t-155.5 -39.5t-144.5 32t-100.5 89.5t-57 131t-19 161.5zM289 383 q0 -217 114 -217q71 0 135.5 93.5t104.5 226.5t63 266t23 225q0 221 -117 221q-72 0 -136 -93.5t-103 -227.5t-61.5 -267.5t-22.5 -226.5zM465 1481l197 295h178l69 -295h-104l-74 200l-151 -200h-115z" />
<glyph unicode="&#xd5;" horiz-adv-x="940" d="M70 389q0 98 19 221.5t63.5 262t106.5 252.5t158.5 189t209.5 75q82 0 144.5 -32.5t100.5 -90.5t57 -132.5t19 -162.5q0 -67 -10 -150.5t-31.5 -179.5t-52.5 -189.5t-77.5 -180t-101.5 -152t-128.5 -105t-155.5 -39.5t-144.5 32t-100.5 89.5t-57 131t-19 161.5zM289 383 q0 -217 114 -217q71 0 135.5 93.5t104.5 226.5t63 266t23 225q0 221 -117 221q-72 0 -136 -93.5t-103 -227.5t-61.5 -267.5t-22.5 -226.5zM436 1489q61 274 203 274q26 0 46 -9t33 -26.5t19.5 -32t14.5 -36.5q8 -24 12.5 -34.5t14.5 -21t24 -10.5q48 0 84 158h104 q-26 -125 -77.5 -199.5t-127.5 -74.5q-26 0 -45.5 8.5t-32 27t-18.5 31.5t-14 37t-12.5 34.5t-14.5 21t-24 10.5q-48 0 -84 -158h-105z" />
<glyph unicode="&#xd6;" horiz-adv-x="940" d="M70 389q0 98 19 221.5t63.5 262t106.5 252.5t158.5 189t209.5 75q82 0 144.5 -32.5t100.5 -90.5t57 -132.5t19 -162.5q0 -67 -10 -150.5t-31.5 -179.5t-52.5 -189.5t-77.5 -180t-101.5 -152t-128.5 -105t-155.5 -39.5t-144.5 32t-100.5 89.5t-57 131t-19 161.5zM289 383 q0 -217 114 -217q71 0 135.5 93.5t104.5 226.5t63 266t23 225q0 221 -117 221q-72 0 -136 -93.5t-103 -227.5t-61.5 -267.5t-22.5 -226.5zM451 1604q0 47 37.5 83.5t86.5 36.5q42 0 70.5 -28t28.5 -70q0 -47 -38 -84t-87 -37q-41 0 -69.5 28.5t-28.5 70.5zM764 1604 q0 47 38 83.5t87 36.5q42 0 70 -28t28 -70q0 -47 -38 -84t-87 -37q-42 0 -70 28.5t-28 70.5z" />
<glyph unicode="&#xd7;" horiz-adv-x="780" d="M78 477l264 215l-162 207l101 82l159 -207l265 215l77 -98l-262 -215l160 -207l-100 -82l-162 207l-262 -215z" />
<glyph unicode="&#xd8;" horiz-adv-x="940" d="M-14 0l118 176q-34 83 -34 213q0 98 19 221.5t63.5 262t106.5 252.5t158.5 189t209.5 75q141 0 227 -99l51 76h131l-123 -182q35 -85 35 -213q0 -67 -10 -150.5t-31.5 -179.5t-52.5 -189.5t-77.5 -180t-101.5 -152t-128.5 -105t-155.5 -39.5q-141 0 -225 97l-49 -72h-131 zM291 455l428 635q-25 108 -107 108q-66 0 -125 -78t-98.5 -196.5t-64.5 -240.5t-33 -228zM299 270q22 -104 104 -104q65 0 124.5 77.5t99.5 195t66 239.5t34 227z" />
<glyph unicode="&#xd9;" horiz-adv-x="950" d="M80 293q0 44 10 92l217 981h213l-221 -999q-6 -42 -6 -66q0 -66 35 -101.5t92 -35.5q64 0 106 47.5t66 155.5l219 999h213l-217 -989q-46 -205 -150 -303.5t-254 -98.5q-140 0 -231.5 86t-91.5 232zM485 1776h174l97 -295h-125z" />
<glyph unicode="&#xda;" horiz-adv-x="950" d="M80 293q0 44 10 92l217 981h213l-221 -999q-6 -42 -6 -66q0 -66 35 -101.5t92 -35.5q64 0 106 47.5t66 155.5l219 999h213l-217 -989q-46 -205 -150 -303.5t-254 -98.5q-140 0 -231.5 86t-91.5 232zM625 1481l227 295h178l-276 -295h-129z" />
<glyph unicode="&#xdb;" horiz-adv-x="950" d="M80 293q0 44 10 92l217 981h213l-221 -999q-6 -42 -6 -66q0 -66 35 -101.5t92 -35.5q64 0 106 47.5t66 155.5l219 999h213l-217 -989q-46 -205 -150 -303.5t-254 -98.5q-140 0 -231.5 86t-91.5 232zM471 1481l197 295h178l69 -295h-104l-74 200l-151 -200h-115z" />
<glyph unicode="&#xdc;" horiz-adv-x="950" d="M80 293q0 44 10 92l217 981h213l-221 -999q-6 -42 -6 -66q0 -66 35 -101.5t92 -35.5q64 0 106 47.5t66 155.5l219 999h213l-217 -989q-46 -205 -150 -303.5t-254 -98.5q-140 0 -231.5 86t-91.5 232zM457 1604q0 47 38 83.5t87 36.5q42 0 70 -28t28 -70q0 -47 -38 -84 t-87 -37q-41 0 -69.5 28.5t-28.5 70.5zM770 1604q0 47 38 83.5t87 36.5q42 0 70 -28t28 -70q0 -47 -38 -84t-87 -37q-42 0 -70 28.5t-28 70.5z" />
<glyph unicode="&#xdd;" horiz-adv-x="829" d="M184 1366h219l64 -584l324 584h235l-489 -795l-125 -571h-213l125 571zM567 1481l228 295h178l-277 -295h-129z" />
<glyph unicode="&#xde;" horiz-adv-x="856" d="M6 0l301 1366h213l-51 -236h88q134 0 217.5 -91.5t83.5 -237.5q0 -72 -16 -142.5t-52.5 -138t-89 -119t-131.5 -83t-174 -31.5h-112l-64 -287h-213zM324 475h90q100 0 160.5 92t60.5 213q0 75 -33.5 118.5t-93.5 43.5h-82z" />
<glyph unicode="&#xdf;" horiz-adv-x="1001" d="M8 0l225 1028q36 164 138.5 261t255.5 97q137 0 230 -74.5t93 -191.5q0 -41 -11 -77t-25 -60t-40.5 -50.5t-44.5 -40.5t-49 -36q-33 -24 -45.5 -34.5t-33.5 -31t-29 -40t-8 -43.5q0 -40 26 -70.5t78 -71.5q37 -28 58 -47t48.5 -52t40.5 -73t13 -88q0 -81 -38 -155.5 t-114 -124.5t-172 -50q-195 0 -293 138l103 125q68 -107 170 -107q54 0 94.5 41t40.5 104q0 29 -16.5 57t-35 45t-53.5 46q-45 37 -71.5 63.5t-51 77t-24.5 107.5q0 42 11 78.5t24 60.5t39.5 51t43 40t48.5 36q30 22 46 35t36 33.5t28.5 43.5t8.5 50q0 53 -38.5 85 t-103.5 32q-141 0 -184 -189l-227 -1028h-191z" />
<glyph unicode="&#xe0;" horiz-adv-x="831" d="M37 281q0 79 15 173t47 193.5t76.5 181t110.5 133.5t142 52q68 0 117.5 -39t70.5 -119l31 133h191l-220 -989h-192l29 123q-91 -148 -209 -148q-101 0 -155 78.5t-54 227.5zM236 303q0 -158 104 -158q40 0 81.5 40.5t67.5 97.5l95 422q-6 60 -39 99.5t-76 39.5 q-56 0 -102.5 -61.5t-73.5 -151t-42 -177t-15 -151.5zM362 1434h175l96 -295h-125z" />
<glyph unicode="&#xe1;" horiz-adv-x="831" d="M37 281q0 79 15 173t47 193.5t76.5 181t110.5 133.5t142 52q68 0 117.5 -39t70.5 -119l31 133h191l-220 -989h-192l29 123q-91 -148 -209 -148q-101 0 -155 78.5t-54 227.5zM236 303q0 -158 104 -158q40 0 81.5 40.5t67.5 97.5l95 422q-6 60 -39 99.5t-76 39.5 q-56 0 -102.5 -61.5t-73.5 -151t-42 -177t-15 -151.5zM502 1139l227 295h178l-276 -295h-129z" />
<glyph unicode="&#xe2;" horiz-adv-x="831" d="M37 281q0 79 15 173t47 193.5t76.5 181t110.5 133.5t142 52q68 0 117.5 -39t70.5 -119l31 133h191l-220 -989h-192l29 123q-91 -148 -209 -148q-101 0 -155 78.5t-54 227.5zM236 303q0 -158 104 -158q40 0 81.5 40.5t67.5 97.5l95 422q-6 60 -39 99.5t-76 39.5 q-56 0 -102.5 -61.5t-73.5 -151t-42 -177t-15 -151.5zM348 1139l197 295h178l70 -295h-105l-74 200l-151 -200h-115z" />
<glyph unicode="&#xe3;" horiz-adv-x="831" d="M37 281q0 79 15 173t47 193.5t76.5 181t110.5 133.5t142 52q68 0 117.5 -39t70.5 -119l31 133h191l-220 -989h-192l29 123q-91 -148 -209 -148q-101 0 -155 78.5t-54 227.5zM236 303q0 -158 104 -158q40 0 81.5 40.5t67.5 97.5l95 422q-6 60 -39 99.5t-76 39.5 q-56 0 -102.5 -61.5t-73.5 -151t-42 -177t-15 -151.5zM319 1147q61 274 203 274q26 0 46 -9t33 -26.5t19.5 -32t14.5 -36.5q8 -24 12.5 -34.5t14.5 -21t24 -10.5q48 0 84 158h104q-27 -125 -77.5 -199.5t-126.5 -74.5q-26 0 -45.5 8.5t-32 26.5t-19 32t-14.5 37 q-8 24 -12.5 34.5t-14.5 21t-24 10.5q-48 0 -84 -158h-105z" />
<glyph unicode="&#xe4;" horiz-adv-x="831" d="M37 281q0 79 15 173t47 193.5t76.5 181t110.5 133.5t142 52q68 0 117.5 -39t70.5 -119l31 133h191l-220 -989h-192l29 123q-91 -148 -209 -148q-101 0 -155 78.5t-54 227.5zM236 303q0 -158 104 -158q40 0 81.5 40.5t67.5 97.5l95 422q-6 60 -39 99.5t-76 39.5 q-56 0 -102.5 -61.5t-73.5 -151t-42 -177t-15 -151.5zM334 1262q0 47 38 83.5t87 36.5q42 0 70 -28t28 -70q0 -47 -38 -84t-87 -37q-42 0 -70 28.5t-28 70.5zM647 1262q0 47 38 83.5t87 36.5q42 0 70 -28t28 -70q0 -47 -38 -84t-87 -37q-41 0 -69.5 28.5t-28.5 70.5z" />
<glyph unicode="&#xe5;" horiz-adv-x="831" d="M37 281q0 79 15 173t47 193.5t76.5 181t110.5 133.5t142 52q68 0 117.5 -39t70.5 -119l31 133h191l-220 -989h-192l29 123q-91 -148 -209 -148q-101 0 -155 78.5t-54 227.5zM236 303q0 -158 104 -158q40 0 81.5 40.5t67.5 97.5l95 422q-6 60 -39 99.5t-76 39.5 q-56 0 -102.5 -61.5t-73.5 -151t-42 -177t-15 -151.5zM424 1268q0 78 59.5 137t137.5 59q69 0 113 -45t44 -116q0 -78 -59 -137.5t-137 -59.5q-70 0 -114 45.5t-44 116.5zM514 1276q0 -34 21.5 -57t54.5 -23q40 0 70 29t30 69q0 34 -22 57t-54 23q-40 0 -70 -29t-30 -69z " />
<glyph unicode="&#xe6;" horiz-adv-x="1282" d="M37 281q0 79 15 173t47 193.5t76.5 181t110.5 133.5t142 52q68 0 117.5 -39t70.5 -119l31 133h191l-27 -121q40 62 96.5 104t120.5 42q108 -2 163.5 -75.5t55.5 -233.5q0 -121 -39 -273h-491q-10 -49 -10 -108q0 -82 42.5 -135.5t127.5 -53.5t172 98l71 -133 q-110 -125 -239 -125q-192 0 -222 203l-41 -178h-192l29 123q-91 -148 -209 -148q-101 0 -155 78.5t-54 227.5zM236 303q0 -158 104 -158q40 0 81.5 40.5t67.5 97.5l95 422q-6 60 -39 99.5t-76 39.5q-56 0 -102.5 -61.5t-73.5 -151t-42 -177t-15 -151.5zM745 569h310 q16 69 16 123q0 73 -29.5 118.5t-85.5 45.5q-44 0 -81.5 -28t-63 -72.5t-42 -91.5t-24.5 -95z" />
<glyph unicode="&#xe7;" horiz-adv-x="681" d="M43 -317l57 79q49 -65 125 -65q40 0 66 27t26 63q0 49 -47 49q-30 0 -53 -26l-67 43l83 141q-91 31 -140.5 116.5t-49.5 221.5q0 88 18.5 181.5t57 183t91 160t127 114t159.5 43.5q73 0 134 -27.5t97 -73.5l-96 -143q-42 74 -123 74q-61 0 -113.5 -51.5t-84.5 -129 t-50 -161.5t-18 -156q0 -102 39 -151.5t108 -49.5q66 0 123 60l39 -152q-87 -78 -203 -78h-20l-56 -86q21 21 50 21q45 0 73.5 -32.5t28.5 -84.5q0 -79 -58 -133.5t-143 -54.5q-111 0 -180 78z" />
<glyph unicode="&#xe8;" horiz-adv-x="800" d="M41 334q0 71 16 156.5t51.5 179t85 169.5t125.5 125.5t164 49.5q139 0 211 -82.5t72 -241.5q0 -97 -39 -258h-494q-12 -47 -12 -108q0 -82 40.5 -136.5t127.5 -54.5q44 0 90.5 26.5t83.5 69.5l74 -118q-58 -65 -131.5 -100.5t-149.5 -35.5q-149 0 -232 93t-83 266z M260 569h313q17 70 17 123q0 72 -32 118t-89 46q-44 0 -81.5 -27.5t-62.5 -72.5t-41 -92t-24 -95zM346 1434h174l96 -295h-124z" />
<glyph unicode="&#xe9;" horiz-adv-x="800" d="M41 334q0 71 16 156.5t51.5 179t85 169.5t125.5 125.5t164 49.5q139 0 211 -82.5t72 -241.5q0 -97 -39 -258h-494q-12 -47 -12 -108q0 -82 40.5 -136.5t127.5 -54.5q44 0 90.5 26.5t83.5 69.5l74 -118q-58 -65 -131.5 -100.5t-149.5 -35.5q-149 0 -232 93t-83 266z M260 569h313q17 70 17 123q0 72 -32 118t-89 46q-44 0 -81.5 -27.5t-62.5 -72.5t-41 -92t-24 -95zM485 1139l228 295h178l-277 -295h-129z" />
<glyph unicode="&#xea;" horiz-adv-x="800" d="M41 334q0 71 16 156.5t51.5 179t85 169.5t125.5 125.5t164 49.5q139 0 211 -82.5t72 -241.5q0 -97 -39 -258h-494q-12 -47 -12 -108q0 -82 40.5 -136.5t127.5 -54.5q44 0 90.5 26.5t83.5 69.5l74 -118q-58 -65 -131.5 -100.5t-149.5 -35.5q-149 0 -232 93t-83 266z M260 569h313q17 70 17 123q0 72 -32 118t-89 46q-44 0 -81.5 -27.5t-62.5 -72.5t-41 -92t-24 -95zM332 1139l196 295h179l69 -295h-104l-74 200l-152 -200h-114z" />
<glyph unicode="&#xeb;" horiz-adv-x="800" d="M41 334q0 71 16 156.5t51.5 179t85 169.5t125.5 125.5t164 49.5q139 0 211 -82.5t72 -241.5q0 -97 -39 -258h-494q-12 -47 -12 -108q0 -82 40.5 -136.5t127.5 -54.5q44 0 90.5 26.5t83.5 69.5l74 -118q-58 -65 -131.5 -100.5t-149.5 -35.5q-149 0 -232 93t-83 266z M260 569h313q17 70 17 123q0 72 -32 118t-89 46q-44 0 -81.5 -27.5t-62.5 -72.5t-41 -92t-24 -95zM317 1262q0 47 38 83.5t87 36.5q42 0 70.5 -28t28.5 -70q0 -47 -38 -84t-87 -37q-42 0 -70.5 28.5t-28.5 70.5zM631 1262q0 47 38 83.5t87 36.5q42 0 70 -28t28 -70 q0 -47 -38 -84t-87 -37q-41 0 -69.5 28.5t-28.5 70.5z" />
<glyph unicode="&#xec;" horiz-adv-x="397" d="M-8 0l219 989h192l-219 -989h-192zM135 1434h174l97 -295h-125z" />
<glyph unicode="&#xed;" horiz-adv-x="397" d="M-8 0l219 989h192l-219 -989h-192zM274 1139l228 295h178l-277 -295h-129z" />
<glyph unicode="&#xee;" horiz-adv-x="397" d="M-8 0l219 989h192l-219 -989h-192zM121 1139l196 295h179l69 -295h-104l-74 200l-151 -200h-115z" />
<glyph unicode="&#xef;" horiz-adv-x="397" d="M-8 0l219 989h192l-219 -989h-192zM106 1262q0 47 38 83.5t87 36.5q42 0 70.5 -28t28.5 -70q0 -47 -38 -84t-87 -37q-42 0 -70.5 28.5t-28.5 70.5zM420 1262q0 47 38 83.5t87 36.5q42 0 70 -28t28 -70q0 -47 -38 -84t-87 -37q-42 0 -70 28.5t-28 70.5z" />
<glyph unicode="&#xf0;" d="M39 317q0 100 27.5 211t76 210t126 164t167.5 65q71 0 118.5 -42t61.5 -114q-3 141 -24 291l-211 -64l-23 99l217 63q-24 109 -47 166l191 59q33 -97 49 -168l141 43l23 -96l-146 -43q21 -131 21 -293q0 -111 -15 -228t-51 -237.5t-88 -214.5t-132.5 -153.5t-178.5 -59.5 q-152 0 -227.5 89.5t-75.5 252.5zM236 315q0 -92 28 -131t82 -39q52 0 97.5 54t73 133t43 159.5t15.5 141.5q0 41 -9.5 76t-36 61.5t-66.5 26.5q-53 0 -98.5 -55t-72 -134t-41.5 -157.5t-15 -135.5z" />
<glyph unicode="&#xf1;" d="M-8 0l219 989h192l-28 -127q48 67 111.5 109.5t134.5 42.5q79 0 125.5 -43t46.5 -117q0 -34 -9 -61l-174 -793h-192l162 727q6 30 6 45q0 72 -70 72q-47 0 -95 -43t-85 -105l-152 -696h-192zM307 1147q61 274 203 274q26 0 46 -9t33 -26.5t19.5 -32t14.5 -36.5 q8 -24 12.5 -34.5t14.5 -21t24 -10.5q48 0 84 158h104q-26 -125 -77.5 -199.5t-127.5 -74.5q-26 0 -45.5 8.5t-32 27t-18.5 31.5t-14 37t-12.5 34.5t-14.5 21t-24 10.5q-48 0 -84 -158h-105z" />
<glyph unicode="&#xf2;" d="M41 319q0 87 18 181.5t55 186.5t88.5 164.5t125 117.5t157.5 45q141 0 217 -88.5t76 -255.5q0 -87 -18 -181.5t-55 -186.5t-88.5 -164.5t-125 -117.5t-157.5 -45q-140 0 -216.5 89t-76.5 255zM236 315q0 -92 28 -131t82 -39t101.5 59.5t76 145.5t44.5 172.5t16 149.5 q0 172 -109 172q-55 0 -102.5 -59.5t-76 -146t-44.5 -173.5t-16 -150zM350 1434h174l97 -295h-125z" />
<glyph unicode="&#xf3;" d="M41 319q0 87 18 181.5t55 186.5t88.5 164.5t125 117.5t157.5 45q141 0 217 -88.5t76 -255.5q0 -87 -18 -181.5t-55 -186.5t-88.5 -164.5t-125 -117.5t-157.5 -45q-140 0 -216.5 89t-76.5 255zM236 315q0 -92 28 -131t82 -39t101.5 59.5t76 145.5t44.5 172.5t16 149.5 q0 172 -109 172q-55 0 -102.5 -59.5t-76 -146t-44.5 -173.5t-16 -150zM489 1139l228 295h178l-277 -295h-129z" />
<glyph unicode="&#xf4;" d="M41 319q0 87 18 181.5t55 186.5t88.5 164.5t125 117.5t157.5 45q141 0 217 -88.5t76 -255.5q0 -87 -18 -181.5t-55 -186.5t-88.5 -164.5t-125 -117.5t-157.5 -45q-140 0 -216.5 89t-76.5 255zM236 315q0 -92 28 -131t82 -39t101.5 59.5t76 145.5t44.5 172.5t16 149.5 q0 172 -109 172q-55 0 -102.5 -59.5t-76 -146t-44.5 -173.5t-16 -150zM336 1139l196 295h179l69 -295h-104l-74 200l-151 -200h-115z" />
<glyph unicode="&#xf5;" d="M41 319q0 87 18 181.5t55 186.5t88.5 164.5t125 117.5t157.5 45q141 0 217 -88.5t76 -255.5q0 -87 -18 -181.5t-55 -186.5t-88.5 -164.5t-125 -117.5t-157.5 -45q-140 0 -216.5 89t-76.5 255zM236 315q0 -92 28 -131t82 -39t101.5 59.5t76 145.5t44.5 172.5t16 149.5 q0 172 -109 172q-55 0 -102.5 -59.5t-76 -146t-44.5 -173.5t-16 -150zM307 1147q61 274 203 274q26 0 46 -9t33 -26.5t19.5 -32t14.5 -36.5q8 -24 12.5 -34.5t14.5 -21t24 -10.5q48 0 84 158h104q-26 -125 -77.5 -199.5t-127.5 -74.5q-26 0 -45.5 8.5t-32 27t-18.5 31.5 t-14 37t-12.5 34.5t-14.5 21t-24 10.5q-48 0 -84 -158h-105z" />
<glyph unicode="&#xf6;" d="M41 319q0 87 18 181.5t55 186.5t88.5 164.5t125 117.5t157.5 45q141 0 217 -88.5t76 -255.5q0 -87 -18 -181.5t-55 -186.5t-88.5 -164.5t-125 -117.5t-157.5 -45q-140 0 -216.5 89t-76.5 255zM236 315q0 -92 28 -131t82 -39t101.5 59.5t76 145.5t44.5 172.5t16 149.5 q0 172 -109 172q-55 0 -102.5 -59.5t-76 -146t-44.5 -173.5t-16 -150zM322 1262q0 47 37.5 83.5t86.5 36.5q42 0 70.5 -28t28.5 -70q0 -47 -38 -84t-87 -37q-42 0 -70 28.5t-28 70.5zM635 1262q0 47 38 83.5t87 36.5q42 0 70 -28t28 -70q0 -47 -38 -84t-87 -37 q-41 0 -69.5 28.5t-28.5 70.5z" />
<glyph unicode="&#xf7;" horiz-adv-x="765" d="M88 627l27 127h647l-27 -127h-647zM254 383q0 47 34.5 81t80.5 34q39 0 67.5 -29t28.5 -68q0 -47 -34.5 -79.5t-80.5 -32.5q-40 0 -68 27t-28 67zM387 975q0 46 34 79t81 33q40 0 67 -28t27 -68q0 -47 -34.5 -79.5t-80.5 -32.5q-40 0 -67 28t-27 68z" />
<glyph unicode="&#xf8;" d="M-33 0l107 137q-33 70 -33 182q0 87 18 181.5t55 186.5t88.5 164.5t125 117.5t157.5 45q134 0 209 -78l41 53h119l-106 -137q30 -77 30 -182q0 -87 -18 -181.5t-55 -186.5t-88.5 -164.5t-125 -117.5t-157.5 -45q-132 0 -207 78l-41 -53h-119zM236 346l333 430 q-25 68 -94 68q-45 0 -84.5 -39t-68 -103t-48 -133t-30.5 -141q-3 -25 -8 -82zM250 211q25 -66 96 -66q44 0 83.5 39.5t67.5 103.5t47.5 133t30.5 140q6 41 9 78z" />
<glyph unicode="&#xf9;" d="M29 135q0 38 8 62l174 792h192l-161 -727q-6 -27 -6 -45q0 -72 69 -72q47 0 93.5 40.5t82.5 101.5l156 702h192l-219 -989h-192l28 127q-49 -67 -112 -109.5t-133 -42.5q-79 0 -125.5 43t-46.5 117zM350 1434h174l97 -295h-125z" />
<glyph unicode="&#xfa;" d="M29 135q0 38 8 62l174 792h192l-161 -727q-6 -27 -6 -45q0 -72 69 -72q47 0 93.5 40.5t82.5 101.5l156 702h192l-219 -989h-192l28 127q-49 -67 -112 -109.5t-133 -42.5q-79 0 -125.5 43t-46.5 117zM489 1139l228 295h178l-277 -295h-129z" />
<glyph unicode="&#xfb;" d="M29 135q0 38 8 62l174 792h192l-161 -727q-6 -27 -6 -45q0 -72 69 -72q47 0 93.5 40.5t82.5 101.5l156 702h192l-219 -989h-192l28 127q-49 -67 -112 -109.5t-133 -42.5q-79 0 -125.5 43t-46.5 117zM336 1139l196 295h179l69 -295h-104l-74 200l-151 -200h-115z" />
<glyph unicode="&#xfc;" d="M29 135q0 38 8 62l174 792h192l-161 -727q-6 -27 -6 -45q0 -72 69 -72q47 0 93.5 40.5t82.5 101.5l156 702h192l-219 -989h-192l28 127q-49 -67 -112 -109.5t-133 -42.5q-79 0 -125.5 43t-46.5 117zM322 1262q0 47 37.5 83.5t86.5 36.5q42 0 70.5 -28t28.5 -70 q0 -47 -38 -84t-87 -37q-42 0 -70 28.5t-28 70.5zM635 1262q0 47 38 83.5t87 36.5q42 0 70 -28t28 -70q0 -47 -38 -84t-87 -37q-41 0 -69.5 28.5t-28.5 70.5z" />
<glyph unicode="&#xfd;" horiz-adv-x="731" d="M-117 -379l64 160q12 -12 47 -12q28 0 47.5 18t42.5 61l63 132l-28 1009h198l-16 -745l320 745h208l-565 -1182q-59 -119 -117 -163.5t-139 -44.5q-70 0 -125 22zM442 1139l228 295h178l-277 -295h-129z" />
<glyph unicode="&#xfe;" horiz-adv-x="831" d="M-90 -377l383 1743h192l-110 -500q91 148 209 148q102 0 155.5 -78t53.5 -227q0 -79 -15 -173t-47 -194t-76.5 -181.5t-111 -133.5t-142.5 -52q-144 0 -188 158l-113 -510h-190zM246 285q6 -60 39 -100t77 -40q55 0 101.5 62t73.5 151t42 177t15 151q0 158 -105 158 q-40 0 -81.5 -40t-67.5 -97z" />
<glyph unicode="&#xff;" horiz-adv-x="731" d="M-117 -379l64 160q12 -12 47 -12q28 0 47.5 18t42.5 61l63 132l-28 1009h198l-16 -745l320 745h208l-565 -1182q-59 -119 -117 -163.5t-139 -44.5q-70 0 -125 22zM274 1262q0 47 38 83.5t87 36.5q42 0 70.5 -28t28.5 -70q0 -47 -38 -84t-87 -37q-42 0 -70.5 28.5 t-28.5 70.5zM588 1262q0 47 38 83.5t87 36.5q42 0 70 -28t28 -70q0 -47 -38 -84t-87 -37q-42 0 -70 28.5t-28 70.5z" />
<glyph unicode="&#x152;" horiz-adv-x="1261" d="M68 389q0 102 21 228.5t66.5 263t109 248.5t158 184.5t202.5 72.5q56 0 104.5 -32.5t65.5 -104.5l24 117h559l-41 -188h-344l-86 -387h332l-43 -189h-332l-90 -414h344l-41 -188h-559l25 117q-50 -79 -109 -110.5t-110 -31.5q-119 0 -187.5 110.5t-68.5 303.5zM287 383 q0 -217 108 -217q54 0 109.5 56t97.5 157l135 608q-6 209 -114 209q-63 0 -119.5 -61.5t-95 -156t-66.5 -206.5t-41.5 -213t-13.5 -176z" />
<glyph unicode="&#x153;" horiz-adv-x="1294" d="M41 319q0 118 30 238.5t84 223.5t139.5 168t186.5 65q88 0 146.5 -50t83.5 -145q51 94 121 144.5t151 50.5q134 0 206.5 -81t72.5 -243q0 -115 -39 -258h-488q-3 -11 -6.5 -53t-3.5 -55q0 -90 40.5 -140.5t123.5 -50.5q88 0 170 98l74 -120q-124 -136 -277 -136 q-102 0 -164.5 52.5t-81.5 148.5q-62 -101 -127.5 -151t-152.5 -50q-144 0 -216.5 89t-72.5 255zM236 315q0 -170 106 -170q55 0 101.5 60t74 146.5t42.5 172.5t15 148q0 85 -24.5 128.5t-81.5 43.5q-54 0 -100.5 -58t-74 -143.5t-43 -172.5t-15.5 -155zM764 569h305 q16 58 16 123q0 78 -29.5 121t-86.5 43q-44 0 -80.5 -27t-60.5 -72t-39 -91t-25 -97z" />
<glyph unicode="&#x178;" horiz-adv-x="829" d="M184 1366h219l64 -584l324 584h235l-489 -795l-125 -571h-213l125 571zM399 1604q0 47 38 83.5t87 36.5q42 0 70.5 -28t28.5 -70q0 -47 -38 -84t-87 -37q-42 0 -70.5 28.5t-28.5 70.5zM713 1604q0 47 38 83.5t87 36.5q42 0 70 -28t28 -70q0 -47 -38 -84t-87 -37 q-41 0 -69.5 28.5t-28.5 70.5z" />
<glyph unicode="&#x2c6;" horiz-adv-x="444" d="M141 1139l197 295h178l70 -295h-105l-73 200l-152 -200h-115z" />
<glyph unicode="&#x2dc;" horiz-adv-x="497" d="M143 1147q61 274 203 274q26 0 46 -9t33 -26.5t19.5 -32t14.5 -36.5q8 -24 12.5 -34.5t14.5 -21t24 -10.5q48 0 84 158h104q-27 -125 -77.5 -199.5t-126.5 -74.5q-26 0 -45.5 8.5t-32 26.5t-19 32t-14.5 37q-8 24 -12.5 34.5t-14.5 21t-24 10.5q-48 0 -84 -158h-105z" />
<glyph unicode="&#x2000;" horiz-adv-x="903" />
<glyph unicode="&#x2001;" horiz-adv-x="1806" />
<glyph unicode="&#x2002;" horiz-adv-x="903" />
<glyph unicode="&#x2003;" horiz-adv-x="1806" />
<glyph unicode="&#x2004;" horiz-adv-x="602" />
<glyph unicode="&#x2005;" horiz-adv-x="451" />
<glyph unicode="&#x2006;" horiz-adv-x="301" />
<glyph unicode="&#x2007;" horiz-adv-x="301" />
<glyph unicode="&#x2008;" horiz-adv-x="225" />
<glyph unicode="&#x2009;" horiz-adv-x="361" />
<glyph unicode="&#x200a;" horiz-adv-x="100" />
<glyph unicode="&#x2010;" horiz-adv-x="487" d="M41 412l37 166h364l-34 -166h-367z" />
<glyph unicode="&#x2011;" horiz-adv-x="487" d="M41 412l37 166h364l-34 -166h-367z" />
<glyph unicode="&#x2012;" horiz-adv-x="487" d="M41 412l37 166h364l-34 -166h-367z" />
<glyph unicode="&#x2013;" horiz-adv-x="942" d="M41 412l37 166h819l-37 -166h-819z" />
<glyph unicode="&#x2014;" horiz-adv-x="1310" d="M41 412l37 166h1188l-37 -166h-1188z" />
<glyph unicode="&#x2018;" horiz-adv-x="493" d="M223 1028q0 101 75.5 203t184.5 155l74 -75q-60 -30 -111.5 -77t-70.5 -95h18q41 0 71 -29.5t30 -77.5q0 -58 -44 -99.5t-100 -41.5q-54 0 -90.5 36t-36.5 101z" />
<glyph unicode="&#x2019;" horiz-adv-x="493" d="M217 967q60 30 111.5 77t70.5 95h-18q-41 0 -70.5 29t-29.5 77q0 58 43.5 99.5t99.5 41.5q54 0 90.5 -36t36.5 -99q0 -102 -75.5 -204t-184.5 -156z" />
<glyph unicode="&#x201a;" horiz-adv-x="493" d="M-37 -176q59 28 111 75t71 97q-2 -2 -18 -2q-41 0 -70.5 29t-29.5 77q0 58 43.5 100t99.5 42q54 0 90.5 -36.5t36.5 -99.5q0 -102 -75.5 -204t-184.5 -156z" />
<glyph unicode="&#x201c;" horiz-adv-x="851" d="M227 1028q0 101 75.5 203t184.5 155l72 -75q-60 -30 -111.5 -77t-70.5 -95h18q43 0 73 -29.5t30 -77.5q0 -58 -44 -99.5t-100 -41.5q-54 0 -90.5 36t-36.5 101zM584 1028q0 101 76 202.5t184 155.5l74 -75q-60 -30 -112 -77t-71 -95h19q41 0 70.5 -29.5t29.5 -77.5 q0 -58 -43.5 -99.5t-99.5 -41.5q-54 0 -90.5 36t-36.5 101z" />
<glyph unicode="&#x201d;" horiz-adv-x="851" d="M217 967q60 30 111.5 77t70.5 95h-18q-41 0 -70.5 29t-29.5 77q0 58 43.5 99.5t99.5 41.5q54 0 90.5 -36t36.5 -99q0 -102 -75.5 -204t-184.5 -156zM575 967q60 30 112 77t71 95h-19q-43 0 -72.5 29t-29.5 77q0 58 43.5 99.5t99.5 41.5q54 0 90.5 -36t36.5 -99 q0 -102 -75.5 -204t-184.5 -156z" />
<glyph unicode="&#x201e;" horiz-adv-x="851" d="M-37 -176q59 28 111 75t71 97q-4 -2 -18 -2q-41 0 -70.5 29t-29.5 77q0 58 43.5 100t99.5 42q54 0 90.5 -36.5t36.5 -99.5q0 -102 -75.5 -204t-184.5 -156zM322 -176q59 28 111 75t71 97q-4 -2 -19 -2q-43 0 -72.5 29t-29.5 77q0 58 43.5 100t99.5 42q54 0 90.5 -36.5 t36.5 -99.5q0 -102 -75.5 -204t-184.5 -156z" />
<glyph unicode="&#x2022;" horiz-adv-x="733" d="M135 475q0 101 77 175.5t179 74.5q88 0 147.5 -59.5t59.5 -147.5q0 -101 -77 -175.5t-179 -74.5q-89 0 -148 59t-59 148z" />
<glyph unicode="&#x2026;" horiz-adv-x="1468" d="M27 98q0 59 42.5 101.5t100.5 42.5q51 0 86 -35.5t35 -85.5q0 -59 -43.5 -101.5t-102.5 -42.5q-51 0 -84.5 35t-33.5 86zM516 98q0 59 42.5 101.5t100.5 42.5q51 0 86 -35.5t35 -85.5q0 -60 -43 -102t-102 -42q-51 0 -85 35t-34 86zM1006 98q0 59 42.5 101.5t100.5 42.5 q51 0 86 -35.5t35 -85.5q0 -59 -43.5 -101.5t-102.5 -42.5q-51 0 -84.5 35t-33.5 86z" />
<glyph unicode="&#x202f;" horiz-adv-x="361" />
<glyph unicode="&#x2039;" horiz-adv-x="460" d="M59 498l267 362h157l-272 -371l100 -360h-149z" />
<glyph unicode="&#x203a;" horiz-adv-x="460" d="M-23 129l273 371l-100 360h149l102 -368l-266 -363h-158z" />
<glyph unicode="&#x205f;" horiz-adv-x="451" />
<glyph unicode="&#x20ac;" horiz-adv-x="874" d="M25 477l28 125h66q13 84 33 164h-62l29 127h67q33 102 76.5 187t101 156.5t133 112t160.5 40.5q77 0 136 -30t93.5 -82t52.5 -113.5t22 -133.5l-199 -39q-13 207 -119 207q-133 0 -233 -305h231l-29 -127h-237q-16 -62 -35 -164h235l-26 -125h-225q-6 -61 -3.5 -117 t11 -99t34.5 -69t68 -26q49 0 92 42.5t88 127.5l170 -74q-69 -141 -157 -214t-205 -73q-93 0 -160 37.5t-103.5 105.5t-50 158t-4.5 201h-79z" />
<glyph unicode="&#x2122;" horiz-adv-x="765" d="M213 915l88 398h-86l10 53h230l-11 -53h-86l-88 -398h-57zM430 915l98 451h88l21 -322l160 322h88l-99 -451h-57l82 373l-195 -373h-16l-31 373l-82 -373h-57z" />
<glyph unicode="&#x25fc;" horiz-adv-x="993" d="M0 0v993h993v-993h-993z" />
</font>
</defs>
</svg>
